STARTFONT 2.1
FONT Nimbus12
SIZE 12 78 78
FONTBOUNDINGBOX 11 12 0 -2
COMMENT "Generated by fontforge, http://fontforge.sourceforge.net"
COMMENT ""
STARTPROPERTIES 7
DEFAULT_CHAR 0
POINT_SIZE 360
FONT_DESCENT 2
FONT_ASCENT 10
COPYRIGHT "Public domain font.  Share and enjoy."
CHARSET_REGISTRY "ISO10646"
CHARSET_ENCODING "1"
ENDPROPERTIES
CHARS 374
STARTCHAR uni0000
ENCODING 0
SWIDTH 600 0
DWIDTH 9 0
BBX 7 9 1 0
BITMAP
AA
00
82
00
82
00
82
00
AA
ENDCHAR
STARTCHAR space
ENCODING 32
SWIDTH 307 0
DWIDTH 4 0
BBX 1 1 0 0
BITMAP
00
ENDCHAR
STARTCHAR exclam
ENCODING 33
SWIDTH 1440 0
DWIDTH 4 0
BBX 2 9 1 0
BITMAP
C0
C0
C0
C0
C0
C0
00
C0
C0
ENDCHAR
STARTCHAR quotedbl
ENCODING 34
SWIDTH 1800 0
DWIDTH 5 0
BBX 3 3 1 6
BITMAP
A0
A0
A0
ENDCHAR
STARTCHAR numbersign
ENCODING 35
SWIDTH 3600 0
DWIDTH 10 0
BBX 8 8 1 1
BITMAP
12
12
7F
24
24
FE
48
48
ENDCHAR
STARTCHAR dollar
ENCODING 36
SWIDTH 2520 0
DWIDTH 7 0
BBX 5 9 1 0
BITMAP
20
70
A8
E0
70
38
A8
70
20
ENDCHAR
STARTCHAR percent
ENCODING 37
SWIDTH 3960 0
DWIDTH 11 0
BBX 9 10 1 0
BITMAP
6E00
9200
9400
6400
0800
0800
1300
1480
2480
2300
ENDCHAR
STARTCHAR ampersand
ENCODING 38
SWIDTH 3240 0
DWIDTH 9 0
BBX 7 9 1 0
BITMAP
78
CC
CC
60
CE
CC
CC
CC
78
ENDCHAR
STARTCHAR quotesingle
ENCODING 39
SWIDTH 1080 0
DWIDTH 3 0
BBX 1 3 1 6
BITMAP
80
80
80
ENDCHAR
STARTCHAR parenleft
ENCODING 40
SWIDTH 1800 0
DWIDTH 5 0
BBX 3 10 1 0
BITMAP
20
40
C0
C0
C0
C0
C0
C0
40
20
ENDCHAR
STARTCHAR parenright
ENCODING 41
SWIDTH 1800 0
DWIDTH 5 0
BBX 3 10 1 0
BITMAP
80
40
60
60
60
60
60
60
40
80
ENDCHAR
STARTCHAR asterisk
ENCODING 42
SWIDTH 2520 0
DWIDTH 7 0
BBX 5 5 1 2
BITMAP
20
A8
70
A8
20
ENDCHAR
STARTCHAR plus
ENCODING 43
SWIDTH 2520 0
DWIDTH 7 0
BBX 5 5 1 2
BITMAP
20
20
F8
20
20
ENDCHAR
STARTCHAR comma
ENCODING 44
SWIDTH 1440 0
DWIDTH 4 0
BBX 2 4 1 -2
BITMAP
C0
C0
40
80
ENDCHAR
STARTCHAR hyphen
ENCODING 45
SWIDTH 2520 0
DWIDTH 7 0
BBX 5 1 1 4
BITMAP
F8
ENDCHAR
STARTCHAR period
ENCODING 46
SWIDTH 1800 0
DWIDTH 5 0
BBX 2 2 2 0
BITMAP
C0
C0
ENDCHAR
STARTCHAR slash
ENCODING 47
SWIDTH 2520 0
DWIDTH 7 0
BBX 5 10 1 0
BITMAP
08
18
18
30
30
60
60
C0
C0
80
ENDCHAR
STARTCHAR zero
ENCODING 48
SWIDTH 2880 0
DWIDTH 8 0
BBX 6 9 1 0
BITMAP
78
CC
CC
CC
CC
CC
CC
CC
78
ENDCHAR
STARTCHAR one
ENCODING 49
SWIDTH 2880 0
DWIDTH 8 0
BBX 3 9 2 0
BITMAP
60
E0
60
60
60
60
60
60
60
ENDCHAR
STARTCHAR two
ENCODING 50
SWIDTH 2880 0
DWIDTH 8 0
BBX 6 9 1 0
BITMAP
78
8C
0C
0C
18
30
60
C0
FC
ENDCHAR
STARTCHAR three
ENCODING 51
SWIDTH 2880 0
DWIDTH 8 0
BBX 6 9 1 0
BITMAP
FC
18
30
78
0C
0C
0C
8C
78
ENDCHAR
STARTCHAR four
ENCODING 52
SWIDTH 2880 0
DWIDTH 8 0
BBX 7 9 0 0
BITMAP
0C
1C
2C
4C
8C
FE
0C
0C
0C
ENDCHAR
STARTCHAR five
ENCODING 53
SWIDTH 2880 0
DWIDTH 8 0
BBX 6 9 1 0
BITMAP
FC
C0
C0
F8
0C
0C
0C
8C
78
ENDCHAR
STARTCHAR six
ENCODING 54
SWIDTH 2880 0
DWIDTH 8 0
BBX 6 9 1 0
BITMAP
38
60
C0
F8
CC
CC
CC
CC
78
ENDCHAR
STARTCHAR seven
ENCODING 55
SWIDTH 2880 0
DWIDTH 8 0
BBX 6 9 1 0
BITMAP
FC
0C
0C
0C
18
30
30
30
30
ENDCHAR
STARTCHAR eight
ENCODING 56
SWIDTH 2880 0
DWIDTH 8 0
BBX 6 9 1 0
BITMAP
78
CC
CC
CC
78
CC
CC
CC
78
ENDCHAR
STARTCHAR nine
ENCODING 57
SWIDTH 2880 0
DWIDTH 8 0
BBX 6 9 1 0
BITMAP
78
CC
CC
CC
CC
7C
0C
18
70
ENDCHAR
STARTCHAR colon
ENCODING 58
SWIDTH 1440 0
DWIDTH 4 0
BBX 2 7 1 0
BITMAP
C0
C0
00
00
00
C0
C0
ENDCHAR
STARTCHAR semicolon
ENCODING 59
SWIDTH 1440 0
DWIDTH 4 0
BBX 2 9 1 -2
BITMAP
C0
C0
00
00
00
C0
C0
40
80
ENDCHAR
STARTCHAR less
ENCODING 60
SWIDTH 2520 0
DWIDTH 7 0
BBX 5 7 1 1
BITMAP
18
30
60
C0
60
30
18
ENDCHAR
STARTCHAR equal
ENCODING 61
SWIDTH 2520 0
DWIDTH 7 0
BBX 5 3 1 3
BITMAP
F8
00
F8
ENDCHAR
STARTCHAR greater
ENCODING 62
SWIDTH 2520 0
DWIDTH 7 0
BBX 5 7 1 1
BITMAP
C0
60
30
18
30
60
C0
ENDCHAR
STARTCHAR question
ENCODING 63
SWIDTH 2880 0
DWIDTH 8 0
BBX 6 9 1 0
BITMAP
78
8C
0C
18
30
30
00
30
30
ENDCHAR
STARTCHAR at
ENCODING 64
SWIDTH 3960 0
DWIDTH 11 0
BBX 9 8 1 0
BITMAP
3E00
4100
9C80
A480
A480
9B00
4000
3E00
ENDCHAR
STARTCHAR A
ENCODING 65
SWIDTH 2880 0
DWIDTH 8 0
BBX 6 9 1 0
BITMAP
78
CC
CC
CC
CC
FC
CC
CC
CC
ENDCHAR
STARTCHAR B
ENCODING 66
SWIDTH 2880 0
DWIDTH 8 0
BBX 6 9 1 0
BITMAP
F8
CC
CC
CC
F8
CC
CC
CC
F8
ENDCHAR
STARTCHAR C
ENCODING 67
SWIDTH 2880 0
DWIDTH 8 0
BBX 6 9 1 0
BITMAP
78
C4
C0
C0
C0
C0
C0
C4
78
ENDCHAR
STARTCHAR D
ENCODING 68
SWIDTH 2880 0
DWIDTH 8 0
BBX 6 9 1 0
BITMAP
F8
CC
CC
CC
CC
CC
CC
CC
F8
ENDCHAR
STARTCHAR E
ENCODING 69
SWIDTH 2520 0
DWIDTH 7 0
BBX 5 9 1 0
BITMAP
F8
C0
C0
C0
F0
C0
C0
C0
F8
ENDCHAR
STARTCHAR F
ENCODING 70
SWIDTH 2160 0
DWIDTH 6 0
BBX 5 9 1 0
BITMAP
F8
C0
C0
C0
F0
C0
C0
C0
C0
ENDCHAR
STARTCHAR G
ENCODING 71
SWIDTH 2880 0
DWIDTH 8 0
BBX 6 9 1 0
BITMAP
78
C4
C0
C0
DC
CC
CC
CC
7C
ENDCHAR
STARTCHAR H
ENCODING 72
SWIDTH 2880 0
DWIDTH 8 0
BBX 6 9 1 0
BITMAP
CC
CC
CC
CC
FC
CC
CC
CC
CC
ENDCHAR
STARTCHAR I
ENCODING 73
SWIDTH 1440 0
DWIDTH 4 0
BBX 2 9 1 0
BITMAP
C0
C0
C0
C0
C0
C0
C0
C0
C0
ENDCHAR
STARTCHAR J
ENCODING 74
SWIDTH 2880 0
DWIDTH 8 0
BBX 6 9 1 0
BITMAP
0C
0C
0C
0C
0C
0C
CC
CC
78
ENDCHAR
STARTCHAR K
ENCODING 75
SWIDTH 3240 0
DWIDTH 9 0
BBX 7 9 1 0
BITMAP
C6
CC
D8
F0
E0
F0
D8
CC
C6
ENDCHAR
STARTCHAR L
ENCODING 76
SWIDTH 2520 0
DWIDTH 7 0
BBX 5 9 1 0
BITMAP
C0
C0
C0
C0
C0
C0
C0
C0
F8
ENDCHAR
STARTCHAR M
ENCODING 77
SWIDTH 4320 0
DWIDTH 12 0
BBX 10 9 1 0
BITMAP
8040
C0C0
E1C0
F3C0
BEC0
9CC0
88C0
80C0
80C0
ENDCHAR
STARTCHAR N
ENCODING 78
SWIDTH 3240 0
DWIDTH 9 0
BBX 7 9 1 0
BITMAP
82
C2
E2
F2
BA
9E
8E
86
82
ENDCHAR
STARTCHAR O
ENCODING 79
SWIDTH 2880 0
DWIDTH 8 0
BBX 6 9 1 0
BITMAP
78
CC
CC
CC
CC
CC
CC
CC
78
ENDCHAR
STARTCHAR P
ENCODING 80
SWIDTH 2880 0
DWIDTH 8 0
BBX 6 9 1 0
BITMAP
F8
CC
CC
CC
F8
C0
C0
C0
C0
ENDCHAR
STARTCHAR Q
ENCODING 81
SWIDTH 2880 0
DWIDTH 8 0
BBX 6 10 1 -1
BITMAP
78
CC
CC
CC
CC
CC
CC
CC
78
0C
ENDCHAR
STARTCHAR R
ENCODING 82
SWIDTH 2880 0
DWIDTH 8 0
BBX 6 9 1 0
BITMAP
F8
CC
CC
CC
F8
CC
CC
CC
CC
ENDCHAR
STARTCHAR S
ENCODING 83
SWIDTH 2520 0
DWIDTH 7 0
BBX 5 9 1 0
BITMAP
70
C8
C0
E0
70
38
18
98
70
ENDCHAR
STARTCHAR T
ENCODING 84
SWIDTH 2160 0
DWIDTH 6 0
BBX 6 9 0 0
BITMAP
FC
30
30
30
30
30
30
30
30
ENDCHAR
STARTCHAR U
ENCODING 85
SWIDTH 2880 0
DWIDTH 8 0
BBX 6 9 1 0
BITMAP
CC
CC
CC
CC
CC
CC
CC
CC
78
ENDCHAR
STARTCHAR V
ENCODING 86
SWIDTH 2880 0
DWIDTH 8 0
BBX 6 9 1 0
BITMAP
CC
CC
CC
CC
CC
CC
CC
C8
F0
ENDCHAR
STARTCHAR W
ENCODING 87
SWIDTH 4320 0
DWIDTH 12 0
BBX 10 9 1 0
BITMAP
CCC0
CCC0
CCC0
CCC0
CCC0
CCC0
CCC0
CC80
FF00
ENDCHAR
STARTCHAR X
ENCODING 88
SWIDTH 2880 0
DWIDTH 8 0
BBX 6 9 1 0
BITMAP
CC
CC
CC
CC
78
CC
CC
CC
CC
ENDCHAR
STARTCHAR Y
ENCODING 89
SWIDTH 2880 0
DWIDTH 8 0
BBX 6 9 1 0
BITMAP
CC
CC
CC
CC
78
30
30
30
30
ENDCHAR
STARTCHAR Z
ENCODING 90
SWIDTH 1000 0
DWIDTH 8 0
BBX 6 9 1 0
BITMAP
FC
0C
0C
18
30
60
C0
C0
FC
ENDCHAR
STARTCHAR bracketleft
ENCODING 91
SWIDTH 1800 0
DWIDTH 5 0
BBX 3 10 1 0
BITMAP
E0
C0
C0
C0
C0
C0
C0
C0
C0
E0
ENDCHAR
STARTCHAR backslash
ENCODING 92
SWIDTH 2520 0
DWIDTH 7 0
BBX 5 10 1 0
BITMAP
80
80
40
40
20
20
10
10
08
08
ENDCHAR
STARTCHAR bracketright
ENCODING 93
SWIDTH 1800 0
DWIDTH 5 0
BBX 3 10 1 0
BITMAP
E0
60
60
60
60
60
60
60
60
E0
ENDCHAR
STARTCHAR asciicircum
ENCODING 94
SWIDTH 2520 0
DWIDTH 7 0
BBX 5 3 1 6
BITMAP
20
50
88
ENDCHAR
STARTCHAR underscore
ENCODING 95
SWIDTH 2880 0
DWIDTH 8 0
BBX 8 1 0 0
BITMAP
FF
ENDCHAR
STARTCHAR grave
ENCODING 96
SWIDTH 1800 0
DWIDTH 5 0
BBX 3 2 1 8
BITMAP
C0
60
ENDCHAR
STARTCHAR a
ENCODING 97
SWIDTH 2880 0
DWIDTH 8 0
BBX 6 7 1 0
BITMAP
78
8C
7C
CC
CC
CC
7C
ENDCHAR
STARTCHAR b
ENCODING 98
SWIDTH 2880 0
DWIDTH 8 0
BBX 6 9 1 0
BITMAP
C0
C0
F8
CC
CC
CC
CC
CC
F8
ENDCHAR
STARTCHAR c
ENCODING 99
SWIDTH 2520 0
DWIDTH 7 0
BBX 5 7 1 0
BITMAP
70
C8
C0
C0
C0
C8
70
ENDCHAR
STARTCHAR d
ENCODING 100
SWIDTH 2880 0
DWIDTH 8 0
BBX 6 9 1 0
BITMAP
0C
0C
7C
CC
CC
CC
CC
CC
7C
ENDCHAR
STARTCHAR e
ENCODING 101
SWIDTH 2880 0
DWIDTH 8 0
BBX 6 7 1 0
BITMAP
78
CC
CC
FC
C0
C4
78
ENDCHAR
STARTCHAR f
ENCODING 102
SWIDTH 1800 0
DWIDTH 5 0
BBX 5 9 0 0
BITMAP
38
60
F0
60
60
60
60
60
60
ENDCHAR
STARTCHAR g
ENCODING 103
SWIDTH 2880 0
DWIDTH 8 0
BBX 6 9 1 -2
BITMAP
7C
CC
CC
CC
CC
CC
7C
0C
F8
ENDCHAR
STARTCHAR h
ENCODING 104
SWIDTH 2880 0
DWIDTH 8 0
BBX 6 9 1 0
BITMAP
C0
C0
F8
CC
CC
CC
CC
CC
CC
ENDCHAR
STARTCHAR i
ENCODING 105
SWIDTH 1440 0
DWIDTH 4 0
BBX 2 9 1 0
BITMAP
C0
00
C0
C0
C0
C0
C0
C0
C0
ENDCHAR
STARTCHAR j
ENCODING 106
SWIDTH 1800 0
DWIDTH 5 0
BBX 4 11 0 -2
BITMAP
30
00
30
30
30
30
30
30
30
30
E0
ENDCHAR
STARTCHAR k
ENCODING 107
SWIDTH 2880 0
DWIDTH 8 0
BBX 6 9 1 0
BITMAP
C0
C0
CC
D8
F0
E0
F0
D8
CC
ENDCHAR
STARTCHAR l
ENCODING 108
SWIDTH 1440 0
DWIDTH 4 0
BBX 2 9 1 0
BITMAP
C0
C0
C0
C0
C0
C0
C0
C0
C0
ENDCHAR
STARTCHAR m
ENCODING 109
SWIDTH 4320 0
DWIDTH 12 0
BBX 10 7 1 0
BITMAP
FF80
CCC0
CCC0
CCC0
CCC0
CCC0
CCC0
ENDCHAR
STARTCHAR n
ENCODING 110
SWIDTH 2880 0
DWIDTH 8 0
BBX 6 7 1 0
BITMAP
F8
CC
CC
CC
CC
CC
CC
ENDCHAR
STARTCHAR o
ENCODING 111
SWIDTH 2880 0
DWIDTH 8 0
BBX 6 7 1 0
BITMAP
78
CC
CC
CC
CC
CC
78
ENDCHAR
STARTCHAR p
ENCODING 112
SWIDTH 2880 0
DWIDTH 8 0
BBX 6 9 1 -2
BITMAP
F8
CC
CC
CC
CC
CC
F8
C0
C0
ENDCHAR
STARTCHAR q
ENCODING 113
SWIDTH 2880 0
DWIDTH 8 0
BBX 6 9 1 -2
BITMAP
7C
CC
CC
CC
CC
CC
7C
0C
0C
ENDCHAR
STARTCHAR r
ENCODING 114
SWIDTH 2160 0
DWIDTH 6 0
BBX 5 7 1 0
BITMAP
D8
E0
C0
C0
C0
C0
C0
ENDCHAR
STARTCHAR s
ENCODING 115
SWIDTH 2520 0
DWIDTH 7 0
BBX 5 7 1 0
BITMAP
70
C8
E0
70
38
98
70
ENDCHAR
STARTCHAR t
ENCODING 116
SWIDTH 1440 0
DWIDTH 4 0
BBX 4 9 0 0
BITMAP
60
60
F0
60
60
60
60
60
30
ENDCHAR
STARTCHAR u
ENCODING 117
SWIDTH 2880 0
DWIDTH 8 0
BBX 6 7 1 0
BITMAP
CC
CC
CC
CC
CC
CC
7C
ENDCHAR
STARTCHAR v
ENCODING 118
SWIDTH 2880 0
DWIDTH 8 0
BBX 6 7 1 0
BITMAP
CC
CC
CC
CC
CC
C8
F0
ENDCHAR
STARTCHAR w
ENCODING 119
SWIDTH 4320 0
DWIDTH 12 0
BBX 10 7 1 0
BITMAP
CCC0
CCC0
CCC0
CCC0
CCC0
CC80
FF00
ENDCHAR
STARTCHAR x
ENCODING 120
SWIDTH 2880 0
DWIDTH 8 0
BBX 6 7 1 0
BITMAP
CC
CC
CC
78
CC
CC
CC
ENDCHAR
STARTCHAR y
ENCODING 121
SWIDTH 2880 0
DWIDTH 8 0
BBX 6 9 1 -2
BITMAP
CC
CC
CC
CC
CC
CC
7C
0C
F8
ENDCHAR
STARTCHAR z
ENCODING 122
SWIDTH 2880 0
DWIDTH 8 0
BBX 6 7 1 0
BITMAP
FC
0C
18
30
60
C0
FC
ENDCHAR
STARTCHAR braceleft
ENCODING 123
SWIDTH 1800 0
DWIDTH 5 0
BBX 3 10 1 0
BITMAP
20
40
40
40
80
40
40
40
40
20
ENDCHAR
STARTCHAR bar
ENCODING 124
SWIDTH 1080 0
DWIDTH 3 0
BBX 1 10 1 0
BITMAP
80
80
80
80
80
80
80
80
80
80
ENDCHAR
STARTCHAR braceright
ENCODING 125
SWIDTH 1800 0
DWIDTH 5 0
BBX 3 10 1 0
BITMAP
80
40
40
40
20
40
40
40
40
80
ENDCHAR
STARTCHAR asciitilde
ENCODING 126
SWIDTH 2880 0
DWIDTH 8 0
BBX 6 2 1 6
BITMAP
64
98
ENDCHAR
STARTCHAR exclamdown
ENCODING 161
SWIDTH 1440 0
DWIDTH 4 0
BBX 2 9 1 0
BITMAP
C0
C0
00
C0
C0
C0
C0
C0
C0
ENDCHAR
STARTCHAR cent
ENCODING 162
SWIDTH 2880 0
DWIDTH 8 0
BBX 6 9 1 -1
BITMAP
10
78
D4
D0
D0
D0
D4
78
10
ENDCHAR
STARTCHAR sterling
ENCODING 163
SWIDTH 3600 0
DWIDTH 10 0
BBX 8 9 1 0
BITMAP
3C
66
60
30
7C
30
30
73
DE
ENDCHAR
STARTCHAR currency
ENCODING 164
SWIDTH 3240 0
DWIDTH 8 0
BBX 6 6 1 1
BITMAP
84
78
48
48
78
84
ENDCHAR
STARTCHAR yen
ENCODING 165
SWIDTH 2880 0
DWIDTH 8 0
BBX 6 9 1 0
BITMAP
CC
CC
CC
78
FC
30
FC
30
30
ENDCHAR
STARTCHAR brokenbar
ENCODING 166
SWIDTH 1080 0
DWIDTH 3 0
BBX 1 10 1 0
BITMAP
80
80
80
80
00
00
80
80
80
80
ENDCHAR
STARTCHAR section
ENCODING 167
SWIDTH 2880 0
DWIDTH 8 0
BBX 6 11 1 -2
BITMAP
78
CC
C0
70
D8
CC
CC
6C
38
CC
78
ENDCHAR
STARTCHAR dieresis
ENCODING 168
SWIDTH 2160 0
DWIDTH 6 0
BBX 4 1 1 9
BITMAP
90
ENDCHAR
STARTCHAR copyright
ENCODING 169
SWIDTH 4320 0
DWIDTH 12 0
BBX 10 10 1 0
BITMAP
3F00
4080
9E40
B340
B040
B040
B340
9E40
4080
3F00
ENDCHAR
STARTCHAR ordfeminine
ENCODING 170
SWIDTH 2160 0
DWIDTH 6 0
BBX 4 7 1 2
BITMAP
E0
10
70
90
70
00
F0
ENDCHAR
STARTCHAR guillemotleft
ENCODING 171
SWIDTH 3240 0
DWIDTH 9 0
BBX 7 7 1 1
BITMAP
12
24
48
90
48
24
12
ENDCHAR
STARTCHAR logicalnot
ENCODING 172
SWIDTH 2880 0
DWIDTH 8 0
BBX 6 4 1 2
BITMAP
FC
04
04
04
ENDCHAR
STARTCHAR uni00AD
ENCODING 173
SWIDTH 2520 0
DWIDTH 7 0
BBX 5 1 1 4
BITMAP
F8
ENDCHAR
STARTCHAR registered
ENCODING 174
SWIDTH 4320 0
DWIDTH 12 0
BBX 10 10 1 0
BITMAP
3F00
4080
BE40
B340
B340
BE40
B640
B340
4080
3F00
ENDCHAR
STARTCHAR macron
ENCODING 175
SWIDTH 2880 0
DWIDTH 8 0
BBX 8 1 0 9
BITMAP
FF
ENDCHAR
STARTCHAR degree
ENCODING 176
SWIDTH 2160 0
DWIDTH 6 0
BBX 4 4 1 5
BITMAP
60
90
90
60
ENDCHAR
STARTCHAR plusminus
ENCODING 177
SWIDTH 2520 0
DWIDTH 7 0
BBX 5 7 1 0
BITMAP
20
20
F8
20
20
00
F8
ENDCHAR
STARTCHAR uni00B2
ENCODING 178
SWIDTH 2160 0
DWIDTH 6 0
BBX 4 5 1 4
BITMAP
60
90
20
40
F0
ENDCHAR
STARTCHAR uni00B3
ENCODING 179
SWIDTH 2160 0
DWIDTH 6 0
BBX 4 5 1 4
BITMAP
F0
20
70
10
E0
ENDCHAR
STARTCHAR acute
ENCODING 180
SWIDTH 1800 0
DWIDTH 5 0
BBX 3 2 1 8
BITMAP
60
C0
ENDCHAR
STARTCHAR uni00B5
ENCODING 181
SWIDTH 2880 0
DWIDTH 8 0
BBX 6 9 1 -2
BITMAP
CC
CC
CC
CC
CC
CC
F4
C0
C0
ENDCHAR
STARTCHAR paragraph
ENCODING 182
SWIDTH 3960 0
DWIDTH 11 0
BBX 9 11 1 -2
BITMAP
7F80
F300
F300
F300
7300
3300
3300
3300
3300
3300
3300
ENDCHAR
STARTCHAR periodcentered
ENCODING 183
SWIDTH 1440 0
DWIDTH 4 0
BBX 2 2 1 3
BITMAP
C0
C0
ENDCHAR
STARTCHAR cedilla
ENCODING 184
SWIDTH 1800 0
DWIDTH 5 0
BBX 3 3 1 -2
BITMAP
40
20
C0
ENDCHAR
STARTCHAR uni00B9
ENCODING 185
SWIDTH 1440 0
DWIDTH 4 0
BBX 2 5 1 4
BITMAP
40
C0
40
40
40
ENDCHAR
STARTCHAR ordmasculine
ENCODING 186
SWIDTH 2160 0
DWIDTH 6 0
BBX 4 7 1 2
BITMAP
60
90
90
90
60
00
F0
ENDCHAR
STARTCHAR guillemotright
ENCODING 187
SWIDTH 3240 0
DWIDTH 9 0
BBX 7 7 1 1
BITMAP
90
48
24
12
24
48
90
ENDCHAR
STARTCHAR onequarter
ENCODING 188
SWIDTH 3600 0
DWIDTH 10 0
BBX 7 10 2 0
BITMAP
44
C4
48
50
10
24
4C
54
9E
84
ENDCHAR
STARTCHAR onehalf
ENCODING 189
SWIDTH 3600 0
DWIDTH 10 0
BBX 7 10 2 0
BITMAP
44
C4
48
50
10
2C
42
44
88
8E
ENDCHAR
STARTCHAR threequarters
ENCODING 190
SWIDTH 3960 0
DWIDTH 10 0
BBX 8 10 1 0
BITMAP
E2
22
64
28
E8
12
26
2A
4F
42
ENDCHAR
STARTCHAR questiondown
ENCODING 191
SWIDTH 2880 0
DWIDTH 8 0
BBX 6 9 1 0
BITMAP
30
30
00
30
30
60
C0
C4
78
ENDCHAR
STARTCHAR Agrave
ENCODING 192
SWIDTH 2880 0
DWIDTH 8 0
BBX 6 10 1 0
BITMAP
60
30
00
78
CC
CC
FC
CC
CC
CC
ENDCHAR
STARTCHAR Aacute
ENCODING 193
SWIDTH 2880 0
DWIDTH 8 0
BBX 6 10 1 0
BITMAP
18
30
00
78
CC
CC
FC
CC
CC
CC
ENDCHAR
STARTCHAR Acircumflex
ENCODING 194
SWIDTH 2880 0
DWIDTH 8 0
BBX 6 10 1 0
BITMAP
30
48
00
78
CC
CC
FC
CC
CC
CC
ENDCHAR
STARTCHAR Atilde
ENCODING 195
SWIDTH 2880 0
DWIDTH 8 0
BBX 6 10 1 0
BITMAP
64
98
00
78
CC
CC
FC
CC
CC
CC
ENDCHAR
STARTCHAR Adieresis
ENCODING 196
SWIDTH 2880 0
DWIDTH 8 0
BBX 6 10 1 0
BITMAP
48
00
78
CC
CC
CC
FC
CC
CC
CC
ENDCHAR
STARTCHAR Aring
ENCODING 197
SWIDTH 2880 0
DWIDTH 8 0
BBX 6 10 1 0
BITMAP
30
48
30
78
CC
CC
FC
CC
CC
CC
ENDCHAR
STARTCHAR AE
ENCODING 198
SWIDTH 3960 0
DWIDTH 11 0
BBX 9 10 1 0
BITMAP
7F80
CC00
CC00
CC00
CC00
CF00
FC00
CC00
CC00
CF80
ENDCHAR
STARTCHAR Ccedilla
ENCODING 199
SWIDTH 2880 0
DWIDTH 8 0
BBX 6 12 1 -2
BITMAP
78
C4
C0
C0
C0
C0
C0
C0
C4
78
10
60
ENDCHAR
STARTCHAR Egrave
ENCODING 200
SWIDTH 2520 0
DWIDTH 7 0
BBX 5 10 1 0
BITMAP
60
30
00
F8
C0
C0
F0
C0
C0
F8
ENDCHAR
STARTCHAR Eacute
ENCODING 201
SWIDTH 2520 0
DWIDTH 7 0
BBX 5 10 1 0
BITMAP
30
60
00
F8
C0
C0
F0
C0
C0
F8
ENDCHAR
STARTCHAR Ecircumflex
ENCODING 202
SWIDTH 2520 0
DWIDTH 7 0
BBX 5 10 1 0
BITMAP
60
90
00
F8
C0
C0
F0
C0
C0
F8
ENDCHAR
STARTCHAR Edieresis
ENCODING 203
SWIDTH 2520 0
DWIDTH 7 0
BBX 5 10 1 0
BITMAP
90
00
F8
C0
C0
F0
C0
C0
C0
F8
ENDCHAR
STARTCHAR Igrave
ENCODING 204
SWIDTH 1800 0
DWIDTH 5 0
BBX 3 10 1 0
BITMAP
C0
60
00
60
60
60
60
60
60
60
ENDCHAR
STARTCHAR Iacute
ENCODING 205
SWIDTH 1800 0
DWIDTH 5 0
BBX 3 10 1 0
BITMAP
60
C0
00
C0
C0
C0
C0
C0
C0
C0
ENDCHAR
STARTCHAR Icircumflex
ENCODING 206
SWIDTH 2160 0
DWIDTH 6 0
BBX 4 10 1 0
BITMAP
60
90
00
60
60
60
60
60
60
60
ENDCHAR
STARTCHAR Idieresis
ENCODING 207
SWIDTH 2160 0
DWIDTH 6 0
BBX 4 10 1 0
BITMAP
90
00
60
60
60
60
60
60
60
60
ENDCHAR
STARTCHAR Eth
ENCODING 208
SWIDTH 3240 0
DWIDTH 9 0
BBX 7 10 1 0
BITMAP
7C
66
66
66
F6
66
66
66
66
7C
ENDCHAR
STARTCHAR Ntilde
ENCODING 209
SWIDTH 3240 0
DWIDTH 9 0
BBX 7 10 1 0
BITMAP
32
4C
00
C2
E2
F2
BA
9E
8E
86
ENDCHAR
STARTCHAR Ograve
ENCODING 210
SWIDTH 2880 0
DWIDTH 8 0
BBX 6 10 1 0
BITMAP
60
30
00
78
CC
CC
CC
CC
CC
78
ENDCHAR
STARTCHAR Oacute
ENCODING 211
SWIDTH 2880 0
DWIDTH 8 0
BBX 6 10 1 0
BITMAP
18
30
00
78
CC
CC
CC
CC
CC
78
ENDCHAR
STARTCHAR Ocircumflex
ENCODING 212
SWIDTH 2880 0
DWIDTH 8 0
BBX 6 10 1 0
BITMAP
30
48
00
78
CC
CC
CC
CC
CC
78
ENDCHAR
STARTCHAR Otilde
ENCODING 213
SWIDTH 2880 0
DWIDTH 8 0
BBX 6 10 1 0
BITMAP
64
98
00
78
CC
CC
CC
CC
CC
78
ENDCHAR
STARTCHAR Odieresis
ENCODING 214
SWIDTH 2880 0
DWIDTH 8 0
BBX 6 10 1 0
BITMAP
48
00
78
CC
CC
CC
CC
CC
CC
78
ENDCHAR
STARTCHAR multiply
ENCODING 215
SWIDTH 2520 0
DWIDTH 7 0
BBX 5 5 1 2
BITMAP
88
50
20
50
88
ENDCHAR
STARTCHAR Oslash
ENCODING 216
SWIDTH 2880 0
DWIDTH 8 0
BBX 6 10 1 0
BITMAP
08
78
CC
DC
DC
EC
EC
CC
78
40
ENDCHAR
STARTCHAR Ugrave
ENCODING 217
SWIDTH 2880 0
DWIDTH 8 0
BBX 6 10 1 0
BITMAP
60
30
00
CC
CC
CC
CC
CC
CC
78
ENDCHAR
STARTCHAR Uacute
ENCODING 218
SWIDTH 2880 0
DWIDTH 8 0
BBX 6 10 1 0
BITMAP
18
30
00
CC
CC
CC
CC
CC
CC
78
ENDCHAR
STARTCHAR Ucircumflex
ENCODING 219
SWIDTH 2880 0
DWIDTH 8 0
BBX 6 10 1 0
BITMAP
30
48
00
CC
CC
CC
CC
CC
CC
78
ENDCHAR
STARTCHAR Udieresis
ENCODING 220
SWIDTH 2880 0
DWIDTH 8 0
BBX 6 10 1 0
BITMAP
48
00
CC
CC
CC
CC
CC
CC
CC
78
ENDCHAR
STARTCHAR Yacute
ENCODING 221
SWIDTH 2880 0
DWIDTH 8 0
BBX 6 10 1 0
BITMAP
18
30
00
CC
CC
CC
78
30
30
30
ENDCHAR
STARTCHAR Thorn
ENCODING 222
SWIDTH 2880 0
DWIDTH 8 0
BBX 6 9 1 0
BITMAP
C0
C0
F8
CC
CC
CC
F8
C0
C0
ENDCHAR
STARTCHAR germandbls
ENCODING 223
SWIDTH 2880 0
DWIDTH 8 0
BBX 6 11 1 -1
BITMAP
78
CC
CC
CC
D8
CC
CC
CC
CC
D8
C0
ENDCHAR
STARTCHAR agrave
ENCODING 224
SWIDTH 2880 0
DWIDTH 8 0
BBX 6 10 1 0
BITMAP
60
30
00
78
8C
7C
CC
CC
CC
7C
ENDCHAR
STARTCHAR aacute
ENCODING 225
SWIDTH 2880 0
DWIDTH 8 0
BBX 6 10 1 0
BITMAP
18
30
00
78
8C
7C
CC
CC
CC
7C
ENDCHAR
STARTCHAR acircumflex
ENCODING 226
SWIDTH 2880 0
DWIDTH 8 0
BBX 6 10 1 0
BITMAP
30
48
00
78
8C
7C
CC
CC
CC
7C
ENDCHAR
STARTCHAR atilde
ENCODING 227
SWIDTH 2880 0
DWIDTH 8 0
BBX 6 10 1 0
BITMAP
64
98
00
78
8C
7C
CC
CC
CC
7C
ENDCHAR
STARTCHAR adieresis
ENCODING 228
SWIDTH 2880 0
DWIDTH 8 0
BBX 6 9 1 0
BITMAP
48
00
78
8C
7C
CC
CC
CC
7C
ENDCHAR
STARTCHAR aring
ENCODING 229
SWIDTH 2880 0
DWIDTH 8 0
BBX 6 10 1 0
BITMAP
30
48
30
78
8C
7C
CC
CC
CC
7C
ENDCHAR
STARTCHAR ae
ENCODING 230
SWIDTH 4320 0
DWIDTH 12 0
BBX 10 7 1 0
BITMAP
7B80
8CC0
7CC0
CFC0
CC00
CC40
7780
ENDCHAR
STARTCHAR ccedilla
ENCODING 231
SWIDTH 2880 0
DWIDTH 8 0
BBX 6 9 1 -2
BITMAP
78
C4
C0
C0
C0
C4
78
10
60
ENDCHAR
STARTCHAR egrave
ENCODING 232
SWIDTH 2880 0
DWIDTH 8 0
BBX 6 10 1 0
BITMAP
60
30
00
78
CC
CC
FC
C0
C4
78
ENDCHAR
STARTCHAR eacute
ENCODING 233
SWIDTH 2880 0
DWIDTH 8 0
BBX 6 10 1 0
BITMAP
18
30
00
78
CC
CC
FC
C0
C4
78
ENDCHAR
STARTCHAR ecircumflex
ENCODING 234
SWIDTH 2880 0
DWIDTH 8 0
BBX 6 10 1 0
BITMAP
30
48
00
78
CC
CC
FC
C0
C4
78
ENDCHAR
STARTCHAR edieresis
ENCODING 235
SWIDTH 2880 0
DWIDTH 8 0
BBX 6 9 1 0
BITMAP
48
00
78
CC
CC
FC
C0
C4
78
ENDCHAR
STARTCHAR igrave
ENCODING 236
SWIDTH 307 0
DWIDTH 4 0
BBX 3 10 0 0
BITMAP
C0
60
00
60
60
60
60
60
60
60
ENDCHAR
STARTCHAR iacute
ENCODING 237
SWIDTH 307 0
DWIDTH 4 0
BBX 3 10 1 0
BITMAP
60
C0
00
C0
C0
C0
C0
C0
C0
C0
ENDCHAR
STARTCHAR icircumflex
ENCODING 238
SWIDTH 307 0
DWIDTH 4 0
BBX 4 10 0 0
BITMAP
60
90
00
60
60
60
60
60
60
60
ENDCHAR
STARTCHAR idieresis
ENCODING 239
SWIDTH 307 0
DWIDTH 4 0
BBX 4 9 0 0
BITMAP
90
00
60
60
60
60
60
60
60
ENDCHAR
STARTCHAR eth
ENCODING 240
SWIDTH 2880 0
DWIDTH 8 0
BBX 6 10 1 0
BITMAP
68
30
58
0C
7C
CC
CC
CC
CC
78
ENDCHAR
STARTCHAR ntilde
ENCODING 241
SWIDTH 2880 0
DWIDTH 8 0
BBX 6 10 1 0
BITMAP
64
98
00
F8
CC
CC
CC
CC
CC
CC
ENDCHAR
STARTCHAR ograve
ENCODING 242
SWIDTH 2880 0
DWIDTH 8 0
BBX 6 10 1 0
BITMAP
60
30
00
78
CC
CC
CC
CC
CC
78
ENDCHAR
STARTCHAR oacute
ENCODING 243
SWIDTH 2880 0
DWIDTH 8 0
BBX 6 10 1 0
BITMAP
18
30
00
78
CC
CC
CC
CC
CC
78
ENDCHAR
STARTCHAR ocircumflex
ENCODING 244
SWIDTH 2880 0
DWIDTH 8 0
BBX 6 10 1 0
BITMAP
30
48
00
78
CC
CC
CC
CC
CC
78
ENDCHAR
STARTCHAR otilde
ENCODING 245
SWIDTH 2880 0
DWIDTH 8 0
BBX 6 10 1 0
BITMAP
64
98
00
78
CC
CC
CC
CC
CC
78
ENDCHAR
STARTCHAR odieresis
ENCODING 246
SWIDTH 2880 0
DWIDTH 8 0
BBX 6 9 1 0
BITMAP
48
00
78
CC
CC
CC
CC
CC
78
ENDCHAR
STARTCHAR divide
ENCODING 247
SWIDTH 2880 0
DWIDTH 8 0
BBX 6 7 1 0
BITMAP
30
30
00
FC
00
30
30
ENDCHAR
STARTCHAR oslash
ENCODING 248
SWIDTH 2880 0
DWIDTH 8 0
BBX 6 9 1 -1
BITMAP
08
78
CC
DC
FC
EC
CC
78
40
ENDCHAR
STARTCHAR ugrave
ENCODING 249
SWIDTH 2880 0
DWIDTH 8 0
BBX 6 10 1 0
BITMAP
60
30
00
CC
CC
CC
CC
CC
CC
7C
ENDCHAR
STARTCHAR uacute
ENCODING 250
SWIDTH 2880 0
DWIDTH 8 0
BBX 6 10 1 0
BITMAP
18
30
00
CC
CC
CC
CC
CC
CC
7C
ENDCHAR
STARTCHAR ucircumflex
ENCODING 251
SWIDTH 2880 0
DWIDTH 8 0
BBX 6 10 1 0
BITMAP
30
48
00
CC
CC
CC
CC
CC
CC
7C
ENDCHAR
STARTCHAR udieresis
ENCODING 252
SWIDTH 2880 0
DWIDTH 8 0
BBX 6 9 1 0
BITMAP
48
00
CC
CC
CC
CC
CC
CC
7C
ENDCHAR
STARTCHAR yacute
ENCODING 253
SWIDTH 2880 0
DWIDTH 8 0
BBX 6 12 1 -2
BITMAP
18
30
00
CC
CC
CC
CC
CC
CC
7C
0C
F8
ENDCHAR
STARTCHAR thorn
ENCODING 254
SWIDTH 2880 0
DWIDTH 8 0
BBX 6 11 1 -2
BITMAP
C0
C0
F8
CC
CC
CC
CC
CC
F8
C0
C0
ENDCHAR
STARTCHAR ydieresis
ENCODING 255
SWIDTH 2880 0
DWIDTH 8 0
BBX 6 11 1 -2
BITMAP
48
00
CC
CC
CC
CC
CC
CC
7C
0C
F8
ENDCHAR
STARTCHAR tonos
ENCODING 900
SWIDTH 384 0
DWIDTH 5 0
BBX 3 2 1 7
BITMAP
60
C0
ENDCHAR
STARTCHAR dieresistonos
ENCODING 901
SWIDTH 461 0
DWIDTH 6 0
BBX 4 4 1 5
BITMAP
30
60
00
90
ENDCHAR
STARTCHAR Alphatonos
ENCODING 902
SWIDTH 769 0
DWIDTH 10 0
BBX 8 9 1 0
BITMAP
9E
B3
33
33
33
3F
33
33
33
ENDCHAR
STARTCHAR anoteleia
ENCODING 903
SWIDTH 307 0
DWIDTH 4 0
BBX 2 2 1 3
BITMAP
C0
C0
ENDCHAR
STARTCHAR Epsilontonos
ENCODING 904
SWIDTH 692 0
DWIDTH 9 0
BBX 7 9 1 0
BITMAP
BE
B0
30
30
3C
30
30
30
3E
ENDCHAR
STARTCHAR Etatonos
ENCODING 905
SWIDTH 769 0
DWIDTH 10 0
BBX 8 9 1 0
BITMAP
B3
B3
33
33
3F
33
33
33
33
ENDCHAR
STARTCHAR Iotatonos
ENCODING 906
SWIDTH 461 0
DWIDTH 6 0
BBX 4 9 1 0
BITMAP
B0
B0
30
30
30
30
30
30
30
ENDCHAR
STARTCHAR Omicrontonos
ENCODING 908
SWIDTH 846 0
DWIDTH 11 0
BBX 9 9 1 0
BITMAP
9F00
B180
3180
3180
3180
3180
3180
3180
1F00
ENDCHAR
STARTCHAR Upsilontonos
ENCODING 910
SWIDTH 769 0
DWIDTH 10 0
BBX 8 9 1 0
BITMAP
B3
B3
33
33
33
1E
0C
0C
0C
ENDCHAR
STARTCHAR Omegatonos
ENCODING 911
SWIDTH 923 0
DWIDTH 12 0
BBX 10 9 1 0
BITMAP
9F80
B0C0
30C0
30C0
30C0
30C0
1980
0900
39C0
ENDCHAR
STARTCHAR iotadieresistonos
ENCODING 912
SWIDTH 1000 0
DWIDTH 4 0
BBX 4 10 0 0
BITMAP
30
60
00
90
00
60
60
60
60
60
ENDCHAR
STARTCHAR Alpha
ENCODING 913
SWIDTH 1000 0
DWIDTH 8 0
BBX 6 9 1 0
BITMAP
78
CC
CC
CC
CC
FC
CC
CC
CC
ENDCHAR
STARTCHAR Beta
ENCODING 914
SWIDTH 1000 0
DWIDTH 8 0
BBX 6 9 1 0
BITMAP
F8
CC
CC
F8
CC
CC
CC
CC
F8
ENDCHAR
STARTCHAR Gamma
ENCODING 915
SWIDTH 1000 0
DWIDTH 6 0
BBX 5 9 1 0
BITMAP
F8
C0
C0
C0
C0
C0
C0
C0
C0
ENDCHAR
STARTCHAR Delta
ENCODING 916
SWIDTH 846 0
DWIDTH 11 0
BBX 9 9 1 0
BITMAP
0800
1C00
1400
3600
2200
6300
4100
C180
FF80
ENDCHAR
STARTCHAR Epsilon
ENCODING 917
SWIDTH 1000 0
DWIDTH 7 0
BBX 5 9 1 0
BITMAP
F8
C0
C0
C0
F0
C0
C0
C0
F8
ENDCHAR
STARTCHAR Zeta
ENCODING 918
SWIDTH 1000 0
DWIDTH 8 0
BBX 6 9 1 0
BITMAP
FC
0C
0C
18
30
60
C0
C0
FC
ENDCHAR
STARTCHAR Eta
ENCODING 919
SWIDTH 1000 0
DWIDTH 8 0
BBX 6 9 1 0
BITMAP
CC
CC
CC
CC
FC
CC
CC
CC
CC
ENDCHAR
STARTCHAR Theta
ENCODING 920
SWIDTH 769 0
DWIDTH 10 0
BBX 8 9 1 0
BITMAP
7E
C3
C3
C3
DB
C3
C3
C3
7E
ENDCHAR
STARTCHAR Iota
ENCODING 921
SWIDTH 1000 0
DWIDTH 4 0
BBX 2 9 1 0
BITMAP
C0
C0
C0
C0
C0
C0
C0
C0
C0
ENDCHAR
STARTCHAR Kappa
ENCODING 922
SWIDTH 1000 0
DWIDTH 9 0
BBX 7 9 1 0
BITMAP
C6
CC
D8
F0
E0
F0
D8
CC
C6
ENDCHAR
STARTCHAR Lambda
ENCODING 923
SWIDTH 846 0
DWIDTH 11 0
BBX 9 9 1 0
BITMAP
0800
1C00
1400
3600
2200
6300
4100
C180
C180
ENDCHAR
STARTCHAR Mu
ENCODING 924
SWIDTH 1000 0
DWIDTH 12 0
BBX 10 9 1 0
BITMAP
8040
C0C0
E1C0
F3C0
BEC0
9CC0
88C0
80C0
80C0
ENDCHAR
STARTCHAR Nu
ENCODING 925
SWIDTH 1000 0
DWIDTH 9 0
BBX 7 9 1 0
BITMAP
82
C2
E2
F2
BA
9E
8E
86
82
ENDCHAR
STARTCHAR Xi
ENCODING 926
SWIDTH 615 0
DWIDTH 8 0
BBX 6 9 1 0
BITMAP
FC
00
00
00
78
00
00
00
FC
ENDCHAR
STARTCHAR Omicron
ENCODING 927
SWIDTH 692 0
DWIDTH 9 0
BBX 7 9 1 0
BITMAP
7C
C6
C6
C6
C6
C6
C6
C6
7C
ENDCHAR
STARTCHAR Pi
ENCODING 928
SWIDTH 1000 0
DWIDTH 8 0
BBX 6 9 1 0
BITMAP
FC
CC
CC
CC
CC
CC
CC
CC
CC
ENDCHAR
STARTCHAR Rho
ENCODING 929
SWIDTH 1000 0
DWIDTH 8 0
BBX 6 9 1 0
BITMAP
F8
CC
CC
CC
CC
F8
C0
C0
C0
ENDCHAR
STARTCHAR Sigma
ENCODING 931
SWIDTH 1000 0
DWIDTH 8 0
BBX 6 9 1 0
BITMAP
FC
C0
C0
60
30
60
C0
C0
FC
ENDCHAR
STARTCHAR Tau
ENCODING 932
SWIDTH 461 0
DWIDTH 6 0
BBX 6 9 0 0
BITMAP
FC
30
30
30
30
30
30
30
30
ENDCHAR
STARTCHAR Upsilon
ENCODING 933
SWIDTH 1000 0
DWIDTH 8 0
BBX 6 9 1 0
BITMAP
CC
CC
CC
CC
CC
78
30
30
30
ENDCHAR
STARTCHAR Phi
ENCODING 934
SWIDTH 1000 0
DWIDTH 12 0
BBX 10 9 1 0
BITMAP
0C00
7F80
CCC0
CCC0
CCC0
CCC0
CCC0
7F80
0C00
ENDCHAR
STARTCHAR Chi
ENCODING 935
SWIDTH 1000 0
DWIDTH 8 0
BBX 6 9 1 0
BITMAP
CC
CC
CC
CC
78
CC
CC
CC
CC
ENDCHAR
STARTCHAR Psi
ENCODING 936
SWIDTH 1000 0
DWIDTH 12 0
BBX 10 9 1 0
BITMAP
CCC0
CCC0
CCC0
CCC0
CCC0
7F80
0C00
0C00
0C00
ENDCHAR
STARTCHAR Omega
ENCODING 937
SWIDTH 769 0
DWIDTH 10 0
BBX 8 9 1 0
BITMAP
3C
42
C3
C3
C3
C3
66
24
E7
ENDCHAR
STARTCHAR Iotadieresis
ENCODING 938
SWIDTH 1000 0
DWIDTH 4 0
BBX 4 10 0 0
BITMAP
90
00
60
60
60
60
60
60
60
60
ENDCHAR
STARTCHAR Upsilondieresis
ENCODING 939
SWIDTH 1000 0
DWIDTH 8 0
BBX 6 10 1 0
BITMAP
48
00
CC
CC
CC
CC
78
30
30
30
ENDCHAR
STARTCHAR alphatonos
ENCODING 940
SWIDTH 692 0
DWIDTH 9 0
BBX 7 10 1 0
BITMAP
18
30
00
76
CC
CC
CC
CC
CC
76
ENDCHAR
STARTCHAR epsilontonos
ENCODING 941
SWIDTH 1000 0
DWIDTH 7 0
BBX 5 10 1 0
BITMAP
18
30
00
70
C8
C0
60
C0
C8
70
ENDCHAR
STARTCHAR etatonos
ENCODING 942
SWIDTH 1000 0
DWIDTH 8 0
BBX 6 12 1 -2
BITMAP
18
30
00
F8
CC
CC
CC
CC
CC
CC
0C
0C
ENDCHAR
STARTCHAR iotatonos
ENCODING 943
SWIDTH 1000 0
DWIDTH 4 0
BBX 3 10 1 0
BITMAP
60
C0
00
C0
C0
C0
C0
C0
C0
C0
ENDCHAR
STARTCHAR upsilondieresistonos
ENCODING 944
SWIDTH 1000 0
DWIDTH 8 0
BBX 6 10 1 0
BITMAP
18
30
84
00
CC
CC
CC
CC
CC
78
ENDCHAR
STARTCHAR alpha
ENCODING 945
SWIDTH 692 0
DWIDTH 9 0
BBX 7 7 1 0
BITMAP
76
CC
CC
CC
CC
CC
76
ENDCHAR
STARTCHAR beta
ENCODING 946
SWIDTH 615 0
DWIDTH 8 0
BBX 6 11 1 -2
BITMAP
78
CC
CC
F8
CC
CC
CC
CC
F8
C0
C0
ENDCHAR
STARTCHAR gamma
ENCODING 947
SWIDTH 1000 0
DWIDTH 8 0
BBX 6 9 1 -2
BITMAP
CC
CC
CC
CC
CC
CC
78
30
30
ENDCHAR
STARTCHAR delta
ENCODING 948
SWIDTH 1000 0
DWIDTH 8 0
BBX 6 9 1 0
BITMAP
78
CC
C0
78
CC
CC
CC
CC
78
ENDCHAR
STARTCHAR epsilon
ENCODING 949
SWIDTH 1000 0
DWIDTH 7 0
BBX 5 7 1 0
BITMAP
70
C8
C0
60
C0
C8
70
ENDCHAR
STARTCHAR zeta
ENCODING 950
SWIDTH 461 0
DWIDTH 6 0
BBX 5 11 1 -2
BITMAP
F0
20
40
C0
C0
C0
C0
C0
70
08
10
ENDCHAR
STARTCHAR eta
ENCODING 951
SWIDTH 1000 0
DWIDTH 8 0
BBX 6 9 1 -2
BITMAP
F8
CC
CC
CC
CC
CC
CC
0C
0C
ENDCHAR
STARTCHAR theta
ENCODING 952
SWIDTH 538 0
DWIDTH 7 0
BBX 5 9 1 0
BITMAP
70
D8
D8
D8
F8
D8
D8
D8
70
ENDCHAR
STARTCHAR iota
ENCODING 953
SWIDTH 1000 0
DWIDTH 4 0
BBX 2 7 1 0
BITMAP
C0
C0
C0
C0
C0
C0
C0
ENDCHAR
STARTCHAR kappa
ENCODING 954
SWIDTH 1000 0
DWIDTH 7 0
BBX 5 7 1 0
BITMAP
D8
D8
F0
D0
D8
D8
D8
ENDCHAR
STARTCHAR lambda
ENCODING 955
SWIDTH 615 0
DWIDTH 8 0
BBX 6 9 1 0
BITMAP
40
20
30
30
78
48
CC
CC
CC
ENDCHAR
STARTCHAR mu
ENCODING 956
SWIDTH 1000 0
DWIDTH 8 0
BBX 6 9 1 -2
BITMAP
CC
CC
CC
CC
CC
CC
F8
C0
C0
ENDCHAR
STARTCHAR nu
ENCODING 957
SWIDTH 1000 0
DWIDTH 8 0
BBX 6 7 1 0
BITMAP
CC
CC
CC
CC
CC
C8
F0
ENDCHAR
STARTCHAR xi
ENCODING 958
SWIDTH 461 0
DWIDTH 6 0
BBX 5 11 1 -2
BITMAP
70
C0
C0
70
C0
C0
C0
C0
70
08
10
ENDCHAR
STARTCHAR omicron
ENCODING 959
SWIDTH 1000 0
DWIDTH 8 0
BBX 6 7 1 0
BITMAP
78
CC
CC
CC
CC
CC
78
ENDCHAR
STARTCHAR pi
ENCODING 960
SWIDTH 769 0
DWIDTH 10 0
BBX 8 7 1 0
BITMAP
FF
66
66
66
66
66
66
ENDCHAR
STARTCHAR rho
ENCODING 961
SWIDTH 1000 0
DWIDTH 8 0
BBX 6 9 1 -2
BITMAP
78
CC
CC
CC
CC
CC
F8
C0
C0
ENDCHAR
STARTCHAR sigma1
ENCODING 962
SWIDTH 461 0
DWIDTH 6 0
BBX 5 9 1 -2
BITMAP
70
C0
C0
C0
C0
C0
70
08
10
ENDCHAR
STARTCHAR sigma
ENCODING 963
SWIDTH 692 0
DWIDTH 9 0
BBX 7 7 1 0
BITMAP
7E
CC
CC
CC
CC
CC
78
ENDCHAR
STARTCHAR tau
ENCODING 964
SWIDTH 461 0
DWIDTH 6 0
BBX 6 7 0 0
BITMAP
FC
30
30
30
30
30
30
ENDCHAR
STARTCHAR upsilon
ENCODING 965
SWIDTH 1000 0
DWIDTH 8 0
BBX 6 7 1 0
BITMAP
CC
CC
CC
CC
CC
CC
78
ENDCHAR
STARTCHAR phi
ENCODING 966
SWIDTH 769 0
DWIDTH 10 0
BBX 8 11 1 -2
BITMAP
18
18
7E
DB
DB
DB
DB
DB
7E
18
18
ENDCHAR
STARTCHAR chi
ENCODING 967
SWIDTH 538 0
DWIDTH 7 0
BBX 5 9 1 -2
BITMAP
D8
D8
D8
D8
70
D8
D8
D8
D8
ENDCHAR
STARTCHAR psi
ENCODING 968
SWIDTH 769 0
DWIDTH 10 0
BBX 8 9 1 -2
BITMAP
DB
DB
DB
DB
DB
DB
7E
18
18
ENDCHAR
STARTCHAR omega
ENCODING 969
SWIDTH 846 0
DWIDTH 11 0
BBX 9 7 1 0
BITMAP
6300
C180
C180
C980
C980
C900
7E00
ENDCHAR
STARTCHAR iotadieresis
ENCODING 970
SWIDTH 1000 0
DWIDTH 4 0
BBX 4 9 0 0
BITMAP
90
00
60
60
60
60
60
60
60
ENDCHAR
STARTCHAR upsilondieresis
ENCODING 971
SWIDTH 1000 0
DWIDTH 8 0
BBX 6 9 1 0
BITMAP
48
00
CC
CC
CC
CC
CC
CC
78
ENDCHAR
STARTCHAR omicrontonos
ENCODING 972
SWIDTH 1000 0
DWIDTH 8 0
BBX 6 10 1 0
BITMAP
18
30
00
78
CC
CC
CC
CC
CC
78
ENDCHAR
STARTCHAR upsilontonos
ENCODING 973
SWIDTH 1000 0
DWIDTH 8 0
BBX 6 10 1 0
BITMAP
18
30
00
CC
CC
CC
CC
CC
CC
78
ENDCHAR
STARTCHAR omegatonos
ENCODING 974
SWIDTH 1000 0
DWIDTH 11 0
BBX 9 10 1 0
BITMAP
0C00
1800
0000
6300
C180
C180
C980
C980
C900
7E00
ENDCHAR
STARTCHAR afii10023
ENCODING 1025
SWIDTH 1000 0
DWIDTH 7 0
BBX 5 10 1 0
BITMAP
50
00
F8
C0
C0
F0
C0
C0
C0
F8
ENDCHAR
STARTCHAR afii10017
ENCODING 1040
SWIDTH 1000 0
DWIDTH 8 0
BBX 6 9 1 0
BITMAP
78
CC
CC
CC
CC
FC
CC
CC
CC
ENDCHAR
STARTCHAR afii10018
ENCODING 1041
SWIDTH 1000 0
DWIDTH 8 0
BBX 6 9 1 0
BITMAP
FC
C0
C0
F8
CC
CC
CC
CC
F8
ENDCHAR
STARTCHAR afii10019
ENCODING 1042
SWIDTH 1000 0
DWIDTH 8 0
BBX 6 9 1 0
BITMAP
F8
CC
CC
F8
CC
CC
CC
CC
F8
ENDCHAR
STARTCHAR afii10020
ENCODING 1043
SWIDTH 1000 0
DWIDTH 6 0
BBX 5 9 1 0
BITMAP
F8
C0
C0
C0
C0
C0
C0
C0
C0
ENDCHAR
STARTCHAR afii10021
ENCODING 1044
SWIDTH 1000 0
DWIDTH 9 0
BBX 8 10 0 -1
BITMAP
1E
26
66
66
66
66
66
66
FF
C3
ENDCHAR
STARTCHAR afii10022
ENCODING 1045
SWIDTH 1000 0
DWIDTH 7 0
BBX 5 9 1 0
BITMAP
F8
C0
C0
C0
F0
C0
C0
C0
F8
ENDCHAR
STARTCHAR afii10024
ENCODING 1046
SWIDTH 600 0
DWIDTH 9 0
BBX 7 9 1 0
BITMAP
D6
D6
D6
D6
7C
D6
D6
D6
D6
ENDCHAR
STARTCHAR afii10025
ENCODING 1047
SWIDTH 1000 0
DWIDTH 8 0
BBX 6 9 1 0
BITMAP
78
CC
0C
0C
38
0C
0C
CC
78
ENDCHAR
STARTCHAR afii10026
ENCODING 1048
SWIDTH 1000 0
DWIDTH 9 0
BBX 7 9 1 0
BITMAP
82
86
8E
9E
BA
F2
E2
C2
82
ENDCHAR
STARTCHAR afii10027
ENCODING 1049
SWIDTH 1000 0
DWIDTH 9 0
BBX 7 10 1 0
BITMAP
28
92
86
8E
9E
BA
F2
E2
C2
82
ENDCHAR
STARTCHAR afii10028
ENCODING 1050
SWIDTH 1000 0
DWIDTH 9 0
BBX 7 9 1 0
BITMAP
C6
CC
D8
F0
E0
F0
D8
CC
C6
ENDCHAR
STARTCHAR afii10029
ENCODING 1051
SWIDTH 1000 0
DWIDTH 8 0
BBX 6 9 1 0
BITMAP
3C
4C
CC
CC
CC
CC
CC
CC
CC
ENDCHAR
STARTCHAR afii10030
ENCODING 1052
SWIDTH 1000 0
DWIDTH 12 0
BBX 10 9 1 0
BITMAP
8040
C0C0
E1C0
F3C0
BEC0
9CC0
88C0
80C0
80C0
ENDCHAR
STARTCHAR afii10031
ENCODING 1053
SWIDTH 1000 0
DWIDTH 8 0
BBX 6 9 1 0
BITMAP
CC
CC
CC
CC
FC
CC
CC
CC
CC
ENDCHAR
STARTCHAR afii10032
ENCODING 1054
SWIDTH 1000 0
DWIDTH 8 0
BBX 6 9 1 0
BITMAP
78
CC
CC
CC
CC
CC
CC
CC
78
ENDCHAR
STARTCHAR afii10033
ENCODING 1055
SWIDTH 1000 0
DWIDTH 8 0
BBX 6 9 1 0
BITMAP
FC
CC
CC
CC
CC
CC
CC
CC
CC
ENDCHAR
STARTCHAR afii10034
ENCODING 1056
SWIDTH 1000 0
DWIDTH 8 0
BBX 6 9 1 0
BITMAP
F8
CC
CC
CC
CC
F8
C0
C0
C0
ENDCHAR
STARTCHAR afii10035
ENCODING 1057
SWIDTH 1000 0
DWIDTH 8 0
BBX 6 9 1 0
BITMAP
78
C4
C0
C0
C0
C0
C0
C4
78
ENDCHAR
STARTCHAR afii10036
ENCODING 1058
SWIDTH 461 0
DWIDTH 6 0
BBX 6 9 0 0
BITMAP
FC
30
30
30
30
30
30
30
30
ENDCHAR
STARTCHAR afii10037
ENCODING 1059
SWIDTH 1000 0
DWIDTH 8 0
BBX 6 9 1 0
BITMAP
CC
CC
CC
CC
CC
7C
0C
8C
78
ENDCHAR
STARTCHAR afii10038
ENCODING 1060
SWIDTH 800 0
DWIDTH 12 0
BBX 10 9 1 0
BITMAP
0C00
0C00
7F80
CCC0
CCC0
CCC0
7F80
0C00
0C00
ENDCHAR
STARTCHAR afii10039
ENCODING 1061
SWIDTH 1000 0
DWIDTH 8 0
BBX 6 9 1 0
BITMAP
CC
CC
CC
CC
78
CC
CC
CC
CC
ENDCHAR
STARTCHAR afii10040
ENCODING 1062
SWIDTH 1000 0
DWIDTH 8 0
BBX 7 10 1 -1
BITMAP
CC
CC
CC
CC
CC
CC
CC
CC
FE
02
ENDCHAR
STARTCHAR afii10041
ENCODING 1063
SWIDTH 1000 0
DWIDTH 8 0
BBX 6 9 1 0
BITMAP
CC
CC
CC
CC
CC
7C
0C
0C
0C
ENDCHAR
STARTCHAR afii10042
ENCODING 1064
SWIDTH 1000 0
DWIDTH 12 0
BBX 10 9 1 0
BITMAP
CCC0
CCC0
CCC0
CCC0
CCC0
CCC0
CCC0
CCC0
FFC0
ENDCHAR
STARTCHAR afii10043
ENCODING 1065
SWIDTH 1000 0
DWIDTH 12 0
BBX 11 10 1 -1
BITMAP
CCC0
CCC0
CCC0
CCC0
CCC0
CCC0
CCC0
CCC0
FFE0
0020
ENDCHAR
STARTCHAR afii10044
ENCODING 1066
SWIDTH 1000 0
DWIDTH 8 0
BBX 7 9 0 0
BITMAP
E0
60
60
7C
66
66
66
66
7C
ENDCHAR
STARTCHAR afii10045
ENCODING 1067
SWIDTH 1000 0
DWIDTH 11 0
BBX 9 9 1 0
BITMAP
C180
C180
C180
F980
CD80
CD80
CD80
CD80
F980
ENDCHAR
STARTCHAR afii10046
ENCODING 1068
SWIDTH 1000 0
DWIDTH 8 0
BBX 6 9 1 0
BITMAP
C0
C0
C0
F8
CC
CC
CC
CC
F8
ENDCHAR
STARTCHAR afii10047
ENCODING 1069
SWIDTH 1000 0
DWIDTH 8 0
BBX 6 9 1 0
BITMAP
78
8C
0C
0C
3C
0C
0C
8C
78
ENDCHAR
STARTCHAR afii10048
ENCODING 1070
SWIDTH 733 0
DWIDTH 11 0
BBX 9 9 1 0
BITMAP
CF00
D980
D980
D980
F980
D980
D980
D980
CF00
ENDCHAR
STARTCHAR afii10049
ENCODING 1071
SWIDTH 1000 0
DWIDTH 8 0
BBX 6 9 1 0
BITMAP
7C
CC
CC
CC
7C
CC
CC
CC
CC
ENDCHAR
STARTCHAR afii10065
ENCODING 1072
SWIDTH 1000 0
DWIDTH 8 0
BBX 6 7 1 0
BITMAP
78
8C
7C
CC
CC
CC
7C
ENDCHAR
STARTCHAR afii10066
ENCODING 1073
SWIDTH 1000 0
DWIDTH 8 0
BBX 6 10 1 0
BITMAP
08
70
C0
F8
CC
CC
CC
CC
CC
78
ENDCHAR
STARTCHAR afii10067
ENCODING 1074
SWIDTH 1000 0
DWIDTH 8 0
BBX 6 7 1 0
BITMAP
F8
CC
CC
F8
CC
CC
F8
ENDCHAR
STARTCHAR afii10068
ENCODING 1075
SWIDTH 1000 0
DWIDTH 6 0
BBX 5 7 1 0
BITMAP
F8
C0
C0
C0
C0
C0
C0
ENDCHAR
STARTCHAR afii10069
ENCODING 1076
SWIDTH 1000 0
DWIDTH 9 0
BBX 8 8 0 -1
BITMAP
1E
26
66
66
66
66
FF
81
ENDCHAR
STARTCHAR afii10070
ENCODING 1077
SWIDTH 1000 0
DWIDTH 8 0
BBX 6 7 1 0
BITMAP
78
CC
CC
FC
C0
C4
78
ENDCHAR
STARTCHAR afii10072
ENCODING 1078
SWIDTH 600 0
DWIDTH 9 0
BBX 7 7 1 0
BITMAP
D6
D6
D6
7C
D6
D6
D6
ENDCHAR
STARTCHAR afii10073
ENCODING 1079
SWIDTH 466 0
DWIDTH 7 0
BBX 5 7 1 0
BITMAP
70
98
18
30
18
98
70
ENDCHAR
STARTCHAR afii10074
ENCODING 1080
SWIDTH 1000 0
DWIDTH 8 0
BBX 6 7 1 0
BITMAP
CC
CC
CC
CC
CC
CC
7C
ENDCHAR
STARTCHAR afii10075
ENCODING 1081
SWIDTH 1000 0
DWIDTH 8 0
BBX 6 10 1 0
BITMAP
48
30
00
CC
CC
CC
CC
CC
CC
7C
ENDCHAR
STARTCHAR afii10076
ENCODING 1082
SWIDTH 1000 0
DWIDTH 8 0
BBX 6 7 1 0
BITMAP
CC
D8
F0
E0
F0
D8
CC
ENDCHAR
STARTCHAR afii10077
ENCODING 1083
SWIDTH 1000 0
DWIDTH 8 0
BBX 6 7 1 0
BITMAP
3C
4C
CC
CC
CC
CC
CC
ENDCHAR
STARTCHAR afii10078
ENCODING 1084
SWIDTH 769 0
DWIDTH 10 0
BBX 8 7 1 0
BITMAP
81
C3
E7
BB
93
83
83
ENDCHAR
STARTCHAR afii10079
ENCODING 1085
SWIDTH 1000 0
DWIDTH 8 0
BBX 6 7 1 0
BITMAP
CC
CC
CC
FC
CC
CC
CC
ENDCHAR
STARTCHAR afii10080
ENCODING 1086
SWIDTH 1000 0
DWIDTH 8 0
BBX 6 7 1 0
BITMAP
78
CC
CC
CC
CC
CC
78
ENDCHAR
STARTCHAR afii10081
ENCODING 1087
SWIDTH 1000 0
DWIDTH 8 0
BBX 6 7 1 0
BITMAP
FC
CC
CC
CC
CC
CC
CC
ENDCHAR
STARTCHAR afii10082
ENCODING 1088
SWIDTH 1000 0
DWIDTH 8 0
BBX 6 9 1 -2
BITMAP
F8
CC
CC
CC
CC
CC
F8
C0
C0
ENDCHAR
STARTCHAR afii10083
ENCODING 1089
SWIDTH 538 0
DWIDTH 7 0
BBX 5 7 1 0
BITMAP
70
C8
C0
C0
C0
C8
70
ENDCHAR
STARTCHAR afii10084
ENCODING 1090
SWIDTH 461 0
DWIDTH 6 0
BBX 6 7 0 0
BITMAP
FC
30
30
30
30
30
30
ENDCHAR
STARTCHAR afii10085
ENCODING 1091
SWIDTH 1000 0
DWIDTH 8 0
BBX 6 9 1 -2
BITMAP
CC
CC
CC
CC
CC
CC
7C
0C
F8
ENDCHAR
STARTCHAR afii10086
ENCODING 1092
SWIDTH 769 0
DWIDTH 10 0
BBX 8 10 1 -2
BITMAP
18
7E
DB
DB
DB
DB
DB
7E
18
18
ENDCHAR
STARTCHAR afii10087
ENCODING 1093
SWIDTH 1000 0
DWIDTH 8 0
BBX 6 7 1 0
BITMAP
CC
CC
CC
78
CC
CC
CC
ENDCHAR
STARTCHAR afii10088
ENCODING 1094
SWIDTH 1000 0
DWIDTH 8 0
BBX 7 8 1 -1
BITMAP
CC
CC
CC
CC
CC
CC
FE
02
ENDCHAR
STARTCHAR afii10089
ENCODING 1095
SWIDTH 1000 0
DWIDTH 8 0
BBX 6 7 1 0
BITMAP
CC
CC
CC
CC
7C
0C
0C
ENDCHAR
STARTCHAR afii10090
ENCODING 1096
SWIDTH 1000 0
DWIDTH 12 0
BBX 10 7 1 0
BITMAP
CCC0
CCC0
CCC0
CCC0
CCC0
CCC0
FFC0
ENDCHAR
STARTCHAR afii10091
ENCODING 1097
SWIDTH 1000 0
DWIDTH 12 0
BBX 11 8 1 -1
BITMAP
CCC0
CCC0
CCC0
CCC0
CCC0
CCC0
FFE0
0020
ENDCHAR
STARTCHAR afii10092
ENCODING 1098
SWIDTH 1000 0
DWIDTH 8 0
BBX 7 7 0 0
BITMAP
E0
60
7C
66
66
66
7C
ENDCHAR
STARTCHAR afii10093
ENCODING 1099
SWIDTH 733 0
DWIDTH 11 0
BBX 9 7 1 0
BITMAP
C180
C180
F980
CD80
CD80
CD80
F980
ENDCHAR
STARTCHAR afii10094
ENCODING 1100
SWIDTH 1000 0
DWIDTH 8 0
BBX 6 7 1 0
BITMAP
C0
C0
F8
CC
CC
CC
F8
ENDCHAR
STARTCHAR afii10095
ENCODING 1101
SWIDTH 1000 0
DWIDTH 8 0
BBX 6 7 1 0
BITMAP
78
8C
0C
3C
0C
8C
78
ENDCHAR
STARTCHAR afii10096
ENCODING 1102
SWIDTH 733 0
DWIDTH 11 0
BBX 9 7 1 0
BITMAP
CF00
D980
D980
F980
D980
D980
CF00
ENDCHAR
STARTCHAR afii10097
ENCODING 1103
SWIDTH 1000 0
DWIDTH 8 0
BBX 6 7 1 0
BITMAP
7C
CC
CC
7C
CC
CC
CC
ENDCHAR
STARTCHAR uni0450
ENCODING 1104
SWIDTH 1000 0
DWIDTH 8 0
BBX 6 10 1 0
BITMAP
60
30
00
78
CC
CC
FC
C0
C4
78
ENDCHAR
STARTCHAR afii10071
ENCODING 1105
SWIDTH 1000 0
DWIDTH 8 0
BBX 6 9 1 0
BITMAP
48
00
78
CC
CC
FC
C0
C4
78
ENDCHAR
STARTCHAR afii57664
ENCODING 1488
SWIDTH 533 0
DWIDTH 8 0
BBX 6 9 1 0
BITMAP
CC
CC
CC
EC
78
DC
CC
CC
CC
ENDCHAR
STARTCHAR afii57665
ENCODING 1489
SWIDTH 600 0
DWIDTH 9 0
BBX 7 9 1 0
BITMAP
F8
0C
0C
0C
0C
0C
0C
0C
FE
ENDCHAR
STARTCHAR afii57666
ENCODING 1490
SWIDTH 466 0
DWIDTH 7 0
BBX 5 9 1 0
BITMAP
E0
30
30
30
30
30
30
30
D8
ENDCHAR
STARTCHAR afii57667
ENCODING 1491
SWIDTH 600 0
DWIDTH 9 0
BBX 7 9 1 0
BITMAP
FE
0C
0C
0C
0C
0C
0C
0C
0C
ENDCHAR
STARTCHAR afii57668
ENCODING 1492
SWIDTH 533 0
DWIDTH 8 0
BBX 6 9 1 0
BITMAP
F8
0C
0C
CC
CC
CC
CC
CC
CC
ENDCHAR
STARTCHAR afii57669
ENCODING 1493
SWIDTH 400 0
DWIDTH 6 0
BBX 4 9 1 0
BITMAP
E0
30
30
30
30
30
30
30
30
ENDCHAR
STARTCHAR afii57670
ENCODING 1494
SWIDTH 466 0
DWIDTH 7 0
BBX 5 9 1 0
BITMAP
F8
30
30
30
30
30
30
30
30
ENDCHAR
STARTCHAR afii57671
ENCODING 1495
SWIDTH 1000 0
DWIDTH 8 0
BBX 6 9 1 0
BITMAP
F8
CC
CC
CC
CC
CC
CC
CC
CC
ENDCHAR
STARTCHAR afii57672
ENCODING 1496
SWIDTH 1000 0
DWIDTH 8 0
BBX 6 9 1 0
BITMAP
D8
CC
CC
CC
CC
CC
CC
CC
78
ENDCHAR
STARTCHAR afii57673
ENCODING 1497
SWIDTH 333 0
DWIDTH 5 0
BBX 3 5 1 4
BITMAP
E0
E0
20
20
40
ENDCHAR
STARTCHAR afii57674
ENCODING 1498
SWIDTH 1000 0
DWIDTH 8 0
BBX 6 11 1 -2
BITMAP
FC
0C
0C
0C
0C
0C
0C
0C
0C
0C
0C
ENDCHAR
STARTCHAR afii57675
ENCODING 1499
SWIDTH 1000 0
DWIDTH 8 0
BBX 6 9 1 0
BITMAP
F8
0C
0C
0C
0C
0C
0C
0C
F8
ENDCHAR
STARTCHAR afii57676
ENCODING 1500
SWIDTH 533 0
DWIDTH 8 0
BBX 6 10 1 0
BITMAP
C0
C0
FC
0C
0C
0C
18
30
30
30
ENDCHAR
STARTCHAR afii57677
ENCODING 1501
SWIDTH 1000 0
DWIDTH 8 0
BBX 6 9 1 0
BITMAP
F8
CC
CC
CC
CC
CC
CC
CC
FC
ENDCHAR
STARTCHAR afii57678
ENCODING 1502
SWIDTH 1000 0
DWIDTH 8 0
BBX 6 9 1 0
BITMAP
D8
EC
CC
CC
CC
CC
CC
CC
DC
ENDCHAR
STARTCHAR afii57679
ENCODING 1503
SWIDTH 1000 0
DWIDTH 6 0
BBX 4 11 1 -2
BITMAP
E0
30
30
30
30
30
30
30
30
30
30
ENDCHAR
STARTCHAR afii57680
ENCODING 1504
SWIDTH 1000 0
DWIDTH 6 0
BBX 4 9 1 0
BITMAP
E0
30
30
30
30
30
30
30
F0
ENDCHAR
STARTCHAR afii57681
ENCODING 1505
SWIDTH 1000 0
DWIDTH 8 0
BBX 6 9 1 0
BITMAP
78
CC
CC
CC
CC
CC
CC
CC
78
ENDCHAR
STARTCHAR afii57682
ENCODING 1506
SWIDTH 600 0
DWIDTH 9 0
BBX 7 9 1 0
BITMAP
66
66
66
66
66
66
66
66
FC
ENDCHAR
STARTCHAR afii57683
ENCODING 1507
SWIDTH 1000 0
DWIDTH 8 0
BBX 6 11 1 -2
BITMAP
F8
CC
CC
CC
CC
6C
0C
0C
0C
0C
0C
ENDCHAR
STARTCHAR afii57684
ENCODING 1508
SWIDTH 1000 0
DWIDTH 8 0
BBX 6 9 1 0
BITMAP
F8
CC
CC
CC
EC
0C
0C
0C
F8
ENDCHAR
STARTCHAR afii57685
ENCODING 1509
SWIDTH 1000 0
DWIDTH 9 0
BBX 6 11 2 -2
BITMAP
CC
CC
CC
CC
CC
C8
D0
E0
C0
C0
C0
ENDCHAR
STARTCHAR afii57686
ENCODING 1510
SWIDTH 1000 0
DWIDTH 8 0
BBX 6 9 1 0
BITMAP
CC
CC
CC
CC
68
30
18
0C
F8
ENDCHAR
STARTCHAR afii57687
ENCODING 1511
SWIDTH 1000 0
DWIDTH 8 0
BBX 6 11 1 -2
BITMAP
F8
0C
CC
CC
CC
CC
CC
CC
DC
C0
C0
ENDCHAR
STARTCHAR afii57688
ENCODING 1512
SWIDTH 533 0
DWIDTH 8 0
BBX 6 9 1 0
BITMAP
F8
0C
0C
0C
0C
0C
0C
0C
0C
ENDCHAR
STARTCHAR afii57689
ENCODING 1513
SWIDTH 1000 0
DWIDTH 12 0
BBX 10 9 1 0
BITMAP
CCC0
CCC0
CCC0
CCC0
CCC0
CCC0
CCC0
CCC0
FF80
ENDCHAR
STARTCHAR afii57690
ENCODING 1514
SWIDTH 600 0
DWIDTH 9 0
BBX 7 9 1 0
BITMAP
7C
66
66
66
66
66
66
66
E6
ENDCHAR
STARTCHAR afii57716
ENCODING 1520
SWIDTH 600 0
DWIDTH 9 0
BBX 7 9 1 0
BITMAP
EC
36
36
36
36
36
36
36
36
ENDCHAR
STARTCHAR afii57717
ENCODING 1521
SWIDTH 600 0
DWIDTH 9 0
BBX 7 9 1 0
BITMAP
EC
E6
26
26
46
06
06
06
06
ENDCHAR
STARTCHAR afii57718
ENCODING 1522
SWIDTH 600 0
DWIDTH 9 0
BBX 7 5 1 4
BITMAP
EE
EE
22
22
44
ENDCHAR
STARTCHAR uni05F3
ENCODING 1523
SWIDTH 333 0
DWIDTH 5 0
BBX 3 2 1 8
BITMAP
60
C0
ENDCHAR
STARTCHAR uni05F4
ENCODING 1524
SWIDTH 533 0
DWIDTH 8 0
BBX 6 2 1 8
BITMAP
6C
D8
ENDCHAR
STARTCHAR endash
ENCODING 8211
SWIDTH 923 0
DWIDTH 8 0
BBX 6 1 1 3
BITMAP
FC
ENDCHAR
STARTCHAR emdash
ENCODING 8212
SWIDTH 923 0
DWIDTH 12 0
BBX 10 1 1 3
BITMAP
FFC0
ENDCHAR
STARTCHAR quoteleft
ENCODING 8216
SWIDTH 307 0
DWIDTH 4 0
BBX 2 4 1 6
BITMAP
40
80
C0
C0
ENDCHAR
STARTCHAR quoteright
ENCODING 8217
SWIDTH 1000 0
DWIDTH 4 0
BBX 2 4 1 6
BITMAP
C0
C0
40
80
ENDCHAR
STARTCHAR quotesinglbase
ENCODING 8218
SWIDTH 1000 0
DWIDTH 4 0
BBX 2 4 1 -2
BITMAP
C0
C0
40
80
ENDCHAR
STARTCHAR quotereversed
ENCODING 8219
SWIDTH 1000 0
DWIDTH 4 0
BBX 2 4 1 6
BITMAP
C0
C0
80
40
ENDCHAR
STARTCHAR quotedblleft
ENCODING 8220
SWIDTH 1000 0
DWIDTH 7 0
BBX 5 4 1 6
BITMAP
48
90
D8
D8
ENDCHAR
STARTCHAR quotedblright
ENCODING 8221
SWIDTH 538 0
DWIDTH 7 0
BBX 5 4 1 6
BITMAP
D8
D8
48
90
ENDCHAR
STARTCHAR quotedblbase
ENCODING 8222
SWIDTH 1000 0
DWIDTH 7 0
BBX 5 4 1 -2
BITMAP
D8
D8
48
90
ENDCHAR
STARTCHAR uni201F
ENCODING 8223
SWIDTH 1000 0
DWIDTH 7 0
BBX 5 4 1 6
BITMAP
D8
D8
90
48
ENDCHAR
STARTCHAR ellipsis
ENCODING 8230
SWIDTH 923 0
DWIDTH 12 0
BBX 10 2 1 0
BITMAP
CCC0
CCC0
ENDCHAR
STARTCHAR Euro
ENCODING 8364
SWIDTH 3240 0
DWIDTH 9 0
BBX 7 9 1 0
BITMAP
3C
62
60
F8
60
F0
60
62
3C
ENDCHAR
ENDFONT
